{
 "cells": [
  {
   "cell_type": "markdown",
   "id": "bc71c82b",
   "metadata": {},
   "source": [
    "Dracula by Bram Stoker\n",
    "\n",
    "Source https://www.gutenberg.org/ebooks/345\n",
    "\n",
    "Ref https://en.wikipedia.org/wiki/Dracula"
   ]
  },
  {
   "cell_type": "code",
   "execution_count": null,
   "id": "8e0fc48f",
   "metadata": {},
   "outputs": [],
   "source": [
    "# Concept art\n",
    "\n",
    "Summary: \n",
    "diary entries, and newspaper articles. multiple protagonists,\n",
    "Jonathan Harker taking a business trip to stay at the castle of a Transylvanian nobleman, Count Dracula. \n",
    "Harker escapes the castle after discovering that Dracula is a vampire, \n",
    "and the Count moves to England and plagues the seaside town of Whitby. \n",
    "A small group, led by Abraham Van Helsing, hunt Dracula and, in the end, kill him.\n",
    "\n",
    "Genre: Horror, Gothic, Mystery\n",
    "\n",
    "Background: \n",
    "Transylvanian folklore and history, the Victorian era\n",
    "iconic vampire hunter\n",
    "\n",
    "Main charactor:\n",
    "\n",
    "Prompt 1:\n",
    "Transylvanian castle on the mountain in background, Victorian era\n",
    "swarm of small bats flow out in background at dusk,\n",
    "very small vampire hunter in foreground\n",
    "--ar 3:2 --no text\n",
    "\n",
    "Transylvanian castle on the mountain in background, Victorian era\n",
    "swarm of small bats flow out in background at sunset,\n",
    "very small vampire hunter in foreground\n",
    "--ar 3:2 --no text \n",
    "    \n",
    "Prompt 1:\n",
    "coach pulled by four black horses, running through Transylvania forrest at dusk\n",
    "solicitor gentleman travel inside for business trip, Victorian era\n",
    "--ar 3:2 --no text\n",
    "\n",
    "deep large Transylvania forrest at dusk,\n",
    "small coach pulled by four black horses, running through in foreground,\n",
    "gentleman sitting inside for business trip, Victorian era\n",
    "--ar 3:2 --no text\n",
    "    \n",
    "deep large Transylvania forrest at dusk,\n",
    "only one coach pulled by four black horses, running through deserted dirt road,\n",
    "Victorian era\n",
    "--ar 3:2 --no text\n",
    "    \n",
    "\n",
    "single carriage pulled by four black horses, running through deserted dirt road,\n",
    "in deep Transylvania forrest at dusk,\n",
    "Victorian era\n",
    "--ar 3:2 --no text  \n",
    "    \n",
    "single carriage pulled by four black horses, \n",
    "only one coachman sitting in front,\n",
    "running through deserted dirt road,\n",
    "in deep Transylvania forrest at dusk,\n",
    "Victorian era\n",
    "--ar 3:2 --no text   "
   ]
  },
  {
   "cell_type": "code",
   "execution_count": null,
   "id": "0229b767",
   "metadata": {},
   "outputs": [],
   "source": [
    "# Youtube description\n",
    "\n",
    "Prompt: Write title, description, and keywords of youtube video of full audiobook of the classic book \"Dracula by Bram Stoker\"\n",
    "    \n",
    "Title: \"Dracula by Bram Stoker: Full Audiobook Edition - Part 1/2\"\n",
    "\n",
    "Description: \"Embark on a journey into the dark and mysterious world of Bram Stoker's classic novel \"Dracula.\" Follow the story of young lawyer Jonathan Harker as he travels to Transylvania to help a wealthy nobleman purchase an estate in England, only to find himself caught in a web of terror and intrigue at the hands of the sinister Count Dracula. Let the gripping narration and atmospheric soundscape transport you to the world of Victorian horror.\n",
    "\n",
    "Keywords: Dracula, Bram Stoker, full audiobook, classic literature, horror, Victorian horror, Count Dracula, Jonathan Harker, Transylvania, suspense, mystery, terror, atmosphere, narration, classic novel\n",
    "\n",
    "0:00:00 Chapter 1\n",
    "0:35:18 Chaptor 2\n",
    "1:08:48 Chaptor 3\n",
    "1:43:18 Chaptor 4\n",
    "2:19:04 Chaptor 5\n",
    "2:41:00 Chaptor 6\n",
    "3:16:17 Chaptor 7\n",
    "3:52:12 Chaptor 8\n",
    "4:31:34 Chaptor 9\n",
    "5:08:11 Chaptor 10\n",
    "5:45:35 Chaptor 11\n",
    "6:17:47 Chaptor 12\n",
    "7:02:48 Chaptor 13\n",
    "7:43:46 Chaptor 14\n",
    "8:23:00 Chaptor 15\n",
    "        \n",
    "Credits\n",
    "Text: Project Gutenberg https://www.gutenberg.org/ebooks/345\n",
    "Voice: Google Cloud Text-to-Speech\n",
    "Produced by: The Classic Narrator 2023"
   ]
  },
  {
   "cell_type": "code",
   "execution_count": null,
   "id": "322d1013",
   "metadata": {},
   "outputs": [],
   "source": [
    "\n",
    "0:00:00 Chaptor 15\n",
    "0:35:41 Chaptor 16\n",
    "1:04:01 Chaptor 17\n",
    "1:38:25 Chaptor 18\n",
    "2:21:50 Chaptor 19\n",
    "2:55:52 Chaptor 20\n",
    "3:32:54 Chaptor 21\n",
    "4:11:12 Chaptor 22\n",
    "4:44:05 Chaptor 23\n",
    "5:19:50 Chaptor 24\n",
    "5:58:36 Chaptor 25\n",
    "6:38:10 Chaptor 26\n",
    "7:23:19 Chaptor 27"
   ]
  },
  {
   "cell_type": "code",
   "execution_count": 2,
   "id": "77a554fb",
   "metadata": {},
   "outputs": [
    {
     "name": "stdout",
     "output_type": "stream",
     "text": [
      "Generate audio => output.mp3\n"
     ]
    },
    {
     "data": {
      "text/plain": [
       "1"
      ]
     },
     "execution_count": 2,
     "metadata": {},
     "output_type": "execute_result"
    }
   ],
   "source": [
    "# Voice test\n",
    "\n",
    "from TextToAudiobook import *\n",
    "test_tta = TextToAudiobook(\"test\")\n",
    "\n",
    "\n",
    "\n",
    "text = '''\n",
    "<speak>\n",
    "DR. SEWARD'S DIARY\n",
    "\n",
    "\n",
    " 29 October. --This is written in the train from Varna to Galatz. Last\n",
    "night we all assembled a little before the time of sunset. Each of us\n",
    "had done his work as well as he could; so far as thought, and endeavour,\n",
    "and opportunity go, we are prepared for the whole of our journey, and\n",
    "for our work when we get to Galatz.\n",
    "</speak>\n",
    "'''\n",
    "\n",
    "# Test voices\n",
    "voice = texttospeech.VoiceSelectionParams(\n",
    "    language_code=\"en-GB\",\n",
    "    name=\"en-GB-Neural2-D\",\n",
    ")\n",
    "\n",
    "# voice = texttospeech.VoiceSelectionParams(\n",
    "#     language_code=\"en-GB\",\n",
    "#     name=\"en-GB-Standard-A\",\n",
    "# )\n",
    "\n",
    "\n",
    "audio_config = texttospeech.AudioConfig(\n",
    "    audio_encoding=texttospeech.AudioEncoding.MP3,\n",
    "    speaking_rate=0.9\n",
    ")\n",
    "\n",
    "test_tta.synthesize_ssml(text, \"output.mp3\", voice, audio_config)\n",
    "# test_tta.synthesize_text(text, \"output.mp3\", voice, audio_config)\n",
    "\n"
   ]
  },
  {
   "cell_type": "code",
   "execution_count": 14,
   "id": "0326b8d9",
   "metadata": {},
   "outputs": [
    {
     "name": "stdout",
     "output_type": "stream",
     "text": [
      "The autoreload extension is already loaded. To reload it, use:\n",
      "  %reload_ext autoreload\n"
     ]
    }
   ],
   "source": [
    "%load_ext autoreload\n",
    "%reload_ext autoreload\n",
    "%autoreload 2"
   ]
  },
  {
   "cell_type": "code",
   "execution_count": 41,
   "id": "c3793734",
   "metadata": {},
   "outputs": [],
   "source": [
    "# Text to script\n",
    "\n",
    "from TextToAudiobook import *\n",
    "\n",
    "folder_name = \"DraculaBramStoker\"\n",
    "file_name = \"345-1.txt\"\n",
    "\n",
    "test_tta = TextToAudiobook(folder_name, char_limit_per_call=2000)"
   ]
  },
  {
   "cell_type": "code",
   "execution_count": 20,
   "id": "4b63cb09",
   "metadata": {},
   "outputs": [
    {
     "name": "stdout",
     "output_type": "stream",
     "text": [
      "Clean: 15335 lines\n",
      "./DraculaBramStoker/project_file/clean/345-1.txt\n",
      "Tag: 15335 lines\n",
      "./DraculaBramStoker/project_file/tag/345-1.txt\n",
      "Break: 15335 lines\n",
      "./DraculaBramStoker/project_file/break/345-1.txt\n",
      "Split: 466 files\n",
      "./DraculaBramStoker/project_file/split/345-1_txt/\n"
     ]
    }
   ],
   "source": [
    "#1 Clean raw file and copy to clean folder\n",
    "print(test_tta.clean_txt_raw(file_name))\n",
    "\n",
    "#2 Tag speech in clean file and copy to tag folder\n",
    "print(test_tta.tag_txt_clean(file_name))\n",
    "\n",
    "#3 Mark break point by chapter and characters limit\n",
    "print(test_tta.break_txt_tag(file_name))\n",
    "\n",
    "#4 Split into files by chapter and characters break\n",
    "print(test_tta.split_txt_break(file_name))"
   ]
  },
  {
   "cell_type": "code",
   "execution_count": 38,
   "id": "750cd4eb",
   "metadata": {},
   "outputs": [
    {
     "name": "stdout",
     "output_type": "stream",
     "text": [
      "Generate audio => ./DraculaBramStoker/project_file/audio/345-1_txt/0026_005.mp3\n",
      "Generate audio => ./DraculaBramStoker/project_file/audio/345-1_txt/0026_006.mp3\n",
      "Generate audio => ./DraculaBramStoker/project_file/audio/345-1_txt/0026_007.mp3\n",
      "Generate audio => ./DraculaBramStoker/project_file/audio/345-1_txt/0026_008.mp3\n",
      "Generate audio => ./DraculaBramStoker/project_file/audio/345-1_txt/0026_009.mp3\n",
      "Generate audio => ./DraculaBramStoker/project_file/audio/345-1_txt/0026_010.mp3\n",
      "Generate audio => ./DraculaBramStoker/project_file/audio/345-1_txt/0026_011.mp3\n",
      "Generate audio => ./DraculaBramStoker/project_file/audio/345-1_txt/0026_012.mp3\n",
      "Generate audio => ./DraculaBramStoker/project_file/audio/345-1_txt/0026_013.mp3\n",
      "Generate audio => ./DraculaBramStoker/project_file/audio/345-1_txt/0026_014.mp3\n",
      "Generate audio => ./DraculaBramStoker/project_file/audio/345-1_txt/0026_015.mp3\n",
      "Generate audio => ./DraculaBramStoker/project_file/audio/345-1_txt/0026_016.mp3\n",
      "Generate audio => ./DraculaBramStoker/project_file/audio/345-1_txt/0026_017.mp3\n",
      "Generate audio => ./DraculaBramStoker/project_file/audio/345-1_txt/0026_018.mp3\n",
      "Generate audio => ./DraculaBramStoker/project_file/audio/345-1_txt/0026_019.mp3\n",
      "Generate audio => ./DraculaBramStoker/project_file/audio/345-1_txt/0026_020.mp3\n",
      "Generate audio => ./DraculaBramStoker/project_file/audio/345-1_txt/0027_001.mp3\n",
      "Generate audio => ./DraculaBramStoker/project_file/audio/345-1_txt/0027_002.mp3\n",
      "Generate audio => ./DraculaBramStoker/project_file/audio/345-1_txt/0027_003.mp3\n",
      "Generate audio => ./DraculaBramStoker/project_file/audio/345-1_txt/0027_004.mp3\n",
      "Generate audio => ./DraculaBramStoker/project_file/audio/345-1_txt/0027_005.mp3\n",
      "Generate audio => ./DraculaBramStoker/project_file/audio/345-1_txt/0027_006.mp3\n",
      "Generate audio => ./DraculaBramStoker/project_file/audio/345-1_txt/0027_007.mp3\n",
      "Generate audio => ./DraculaBramStoker/project_file/audio/345-1_txt/0027_008.mp3\n",
      "Generate audio => ./DraculaBramStoker/project_file/audio/345-1_txt/0027_009.mp3\n",
      "Generate audio => ./DraculaBramStoker/project_file/audio/345-1_txt/0027_010.mp3\n",
      "Generate audio => ./DraculaBramStoker/project_file/audio/345-1_txt/0027_011.mp3\n",
      "Generate audio => ./DraculaBramStoker/project_file/audio/345-1_txt/0027_012.mp3\n",
      "Generate audio => ./DraculaBramStoker/project_file/audio/345-1_txt/0027_013.mp3\n",
      "Generate audio => ./DraculaBramStoker/project_file/audio/345-1_txt/0027_014.mp3\n",
      "Generate audio => ./DraculaBramStoker/project_file/audio/345-1_txt/0027_015.mp3\n",
      "Generate audio => ./DraculaBramStoker/project_file/audio/345-1_txt/0027_016.mp3\n",
      "Generate audio => ./DraculaBramStoker/project_file/audio/345-1_txt/0027_017.mp3\n",
      "Generate audio => ./DraculaBramStoker/project_file/audio/345-1_txt/0027_018.mp3\n",
      "Generate audio => ./DraculaBramStoker/project_file/audio/345-1_txt/0027_019.mp3\n",
      "Generate audio => ./DraculaBramStoker/project_file/audio/345-1_txt/0027_020.mp3\n",
      "Generate audio => ./DraculaBramStoker/project_file/audio/345-1_txt/0027_021.mp3\n",
      "Generate audio => ./DraculaBramStoker/project_file/audio/345-1_txt/0027_022.mp3\n",
      "Synthesize: 38 files\n",
      "./DraculaBramStoker/project_file/audio/345-1_txt/\n"
     ]
    }
   ],
   "source": [
    "# Split into files by chapter and characters break\n",
    "voice = texttospeech.VoiceSelectionParams(\n",
    "    language_code=\"en-GB\",\n",
    "    name=\"en-GB-Neural2-D\",\n",
    ")\n",
    "\n",
    "audio_config = texttospeech.AudioConfig(\n",
    "    audio_encoding=texttospeech.AudioEncoding.MP3,\n",
    "    speaking_rate=0.9\n",
    ")\n",
    "print(test_tta.synthesize_txt_split(file_name, file_limit=500, voice=voice, audio_config=audio_config))\n"
   ]
  },
  {
   "cell_type": "code",
   "execution_count": 45,
   "id": "ab7994d6",
   "metadata": {},
   "outputs": [
    {
     "name": "stdout",
     "output_type": "stream",
     "text": [
      "Generate track list: ./DraculaBramStoker/project_file/audio/345-p1_txt/track_list.txt [total: 237 files]\n"
     ]
    },
    {
     "name": "stderr",
     "output_type": "stream",
     "text": [
      "ffmpeg version 5.1.2 Copyright (c) 2000-2022 the FFmpeg developers\n",
      "  built with Apple clang version 14.0.0 (clang-1400.0.29.102)\n",
      "  configuration: --prefix=/usr/local/Cellar/ffmpeg/5.1.2 --enable-shared --enable-pthreads --enable-version3 --cc=clang --host-cflags= --host-ldflags= --enable-ffplay --enable-gnutls --enable-gpl --enable-libaom --enable-libbluray --enable-libdav1d --enable-libmp3lame --enable-libopus --enable-librav1e --enable-librist --enable-librubberband --enable-libsnappy --enable-libsrt --enable-libtesseract --enable-libtheora --enable-libvidstab --enable-libvmaf --enable-libvorbis --enable-libvpx --enable-libwebp --enable-libx264 --enable-libx265 --enable-libxml2 --enable-libxvid --enable-lzma --enable-libfontconfig --enable-libfreetype --enable-frei0r --enable-libass --enable-libopencore-amrnb --enable-libopencore-amrwb --enable-libopenjpeg --enable-libspeex --enable-libsoxr --enable-libzmq --enable-libzimg --disable-libjack --disable-indev=jack --enable-videotoolbox\n",
      "  libavutil      57. 28.100 / 57. 28.100\n",
      "  libavcodec     59. 37.100 / 59. 37.100\n",
      "  libavformat    59. 27.100 / 59. 27.100\n",
      "  libavdevice    59.  7.100 / 59.  7.100\n",
      "  libavfilter     8. 44.100 /  8. 44.100\n",
      "  libswscale      6.  7.100 /  6.  7.100\n",
      "  libswresample   4.  7.100 /  4.  7.100\n",
      "  libpostproc    56.  6.100 / 56.  6.100\n",
      "[mp3 @ 0x7f9c2680ca00] Estimating duration from bitrate, this may be inaccurate\n",
      "Input #0, concat, from './DraculaBramStoker/project_file/audio/345-p1_txt/track_list.txt':\n",
      "  Duration: N/A, start: 0.000000, bitrate: 32 kb/s\n",
      "  Stream #0:0: Audio: mp3, 24000 Hz, mono, fltp, 32 kb/s\n",
      "Output #0, mp3, to './DraculaBramStoker/project_file/audio/345-p1_txt.mp3':\n",
      "  Metadata:\n",
      "    TSSE            : Lavf59.27.100\n",
      "  Stream #0:0: Audio: mp3, 24000 Hz, mono, fltp, 32 kb/s\n",
      "Stream mapping:\n",
      "  Stream #0:0 -> #0:0 (copy)\n",
      "Press [q] to stop, [?] for help\n",
      "[mp3 @ 0x7f9c26b041c0] Estimating duration from bitrate, this may be inaccurate\n",
      "[mp3 @ 0x7f9c26b04180] Estimating duration from bitrate, this may be inaccurate\n",
      "[mp3 @ 0x7f9c2680ef80] Estimating duration from bitrate, this may be inaccurate\n",
      "[mp3 @ 0x7f9c26e04080] Estimating duration from bitrate, this may be inaccurate\n",
      "[mp3 @ 0x7f9c25f05000] Estimating duration from bitrate, this may be inaccurate\n",
      "[mp3 @ 0x7f9c26e042c0] Estimating duration from bitrate, this may be inaccurate\n",
      "[mp3 @ 0x7f9c26b04400] Estimating duration from bitrate, this may be inaccurate\n",
      "[mp3 @ 0x7f9c26e04080] Estimating duration from bitrate, this may be inaccurate\n",
      "[mp3 @ 0x7f9c26e04600] Estimating duration from bitrate, this may be inaccurate\n",
      "[mp3 @ 0x7f9c26e04080] Estimating duration from bitrate, this may be inaccurate\n",
      "[mp3 @ 0x7f9c26e04740] Estimating duration from bitrate, this may be inaccurate\n",
      "[mp3 @ 0x7f9c2680ef80] Estimating duration from bitrate, this may be inaccurate\n",
      "    Last message repeated 1 times\n",
      "[mp3 @ 0x7f9c26b041c0] Estimating duration from bitrate, this may be inaccurate\n",
      "[mp3 @ 0x7f9c25f04dc0] Estimating duration from bitrate, this may be inaccurate\n",
      "[mp3 @ 0x7f9c2680ef80] Estimating duration from bitrate, this may be inaccurate\n",
      "[mp3 @ 0x7f9c26e04080] Estimating duration from bitrate, this may be inaccurate\n",
      "[mp3 @ 0x7f9c25f04dc0] Estimating duration from bitrate, this may be inaccurate\n",
      "[mp3 @ 0x7f9c26e04080] Estimating duration from bitrate, this may be inaccurate\n",
      "[mp3 @ 0x7f9c25f04dc0] Estimating duration from bitrate, this may be inaccurate\n",
      "[mp3 @ 0x7f9c26e04080] Estimating duration from bitrate, this may be inaccurate\n",
      "[mp3 @ 0x7f9c26d04080] Estimating duration from bitrate, this may be inaccurate\n",
      "[mp3 @ 0x7f9c26e04500] Estimating duration from bitrate, this may be inaccurate\n",
      "[mp3 @ 0x7f9c26e04380] Estimating duration from bitrate, this may be inaccurate\n",
      "[mp3 @ 0x7f9c25f04dc0] Estimating duration from bitrate, this may be inaccurate\n",
      "[mp3 @ 0x7f9c2680ef80] Estimating duration from bitrate, this may be inaccurate\n",
      "[mp3 @ 0x7f9c26b04400] Estimating duration from bitrate, this may be inaccurate\n",
      "[mp3 @ 0x7f9c25f04dc0] Estimating duration from bitrate, this may be inaccurate\n",
      "[mp3 @ 0x7f9c2680e140] Estimating duration from bitrate, this may be inaccurate\n",
      "[mp3 @ 0x7f9c26b041c0] Estimating duration from bitrate, this may be inaccurate\n",
      "[mp3 @ 0x7f9c2680ef80] Estimating duration from bitrate, this may be inaccurate\n",
      "[mp3 @ 0x7f9c25f04dc0] Estimating duration from bitrate, this may be inaccurate\n",
      "[mp3 @ 0x7f9c2680ef80] Estimating duration from bitrate, this may be inaccurate\n",
      "    Last message repeated 2 times\n",
      "[mp3 @ 0x7f9c26e040c0] Estimating duration from bitrate, this may be inaccurate\n",
      "[mp3 @ 0x7f9c26e04080] Estimating duration from bitrate, this may be inaccurate\n",
      "[mp3 @ 0x7f9c25f04dc0] Estimating duration from bitrate, this may be inaccurate\n",
      "[mp3 @ 0x7f9c25f04dc0] Estimating duration from bitrate, this may be inaccurate\n",
      "[mp3 @ 0x7f9c26e04080] Estimating duration from bitrate, this may be inaccurate\n",
      "[mp3 @ 0x7f9c25f04dc0] Estimating duration from bitrate, this may be inaccurate\n",
      "[mp3 @ 0x7f9c26b041c0] Estimating duration from bitrate, this may be inaccurate\n",
      "[mp3 @ 0x7f9c26e04080] Estimating duration from bitrate, this may be inaccurate\n",
      "[mp3 @ 0x7f9c26b041c0] Estimating duration from bitrate, this may be inaccurate\n",
      "[mp3 @ 0x7f9c26e04080] Estimating duration from bitrate, this may be inaccurate\n",
      "[mp3 @ 0x7f9c2680ef80] Estimating duration from bitrate, this may be inaccurate\n",
      "[mp3 @ 0x7f9c26b04340] Estimating duration from bitrate, this may be inaccurate\n",
      "[mp3 @ 0x7f9c25f04dc0] Estimating duration from bitrate, this may be inaccurate\n",
      "[mp3 @ 0x7f9c26e04080] Estimating duration from bitrate, this may be inaccurate\n",
      "[mp3 @ 0x7f9c2680ef80] Estimating duration from bitrate, this may be inaccurate\n",
      "[mp3 @ 0x7f9c25f04dc0] Estimating duration from bitrate, this may be inaccurate\n",
      "[mp3 @ 0x7f9c2680ef80] Estimating duration from bitrate, this may be inaccurate\n",
      "[mp3 @ 0x7f9c26b04180] Estimating duration from bitrate, this may be inaccurate\n",
      "    Last message repeated 1 times\n",
      "[mp3 @ 0x7f9c26e04100] Estimating duration from bitrate, this may be inaccurate\n",
      "[mp3 @ 0x7f9c2680ef80] Estimating duration from bitrate, this may be inaccurate\n",
      "[mp3 @ 0x7f9c26f04080] Estimating duration from bitrate, this may be inaccurate\n",
      "[mp3 @ 0x7f9c25f04dc0] Estimating duration from bitrate, this may be inaccurate\n",
      "[mp3 @ 0x7f9c26b04180] Estimating duration from bitrate, this may be inaccurate\n",
      "[mp3 @ 0x7f9c2680ef80] Estimating duration from bitrate, this may be inaccurate\n",
      "[mp3 @ 0x7f9c26e04840] Estimating duration from bitrate, this may be inaccurate\n",
      "[mp3 @ 0x7f9c25f04dc0] Estimating duration from bitrate, this may be inaccurate\n",
      "[mp3 @ 0x7f9c26b04180] Estimating duration from bitrate, this may be inaccurate\n",
      "[mp3 @ 0x7f9c26f04180] Estimating duration from bitrate, this may be inaccurate\n",
      "[mp3 @ 0x7f9c25f04dc0] Estimating duration from bitrate, this may be inaccurate\n",
      "    Last message repeated 1 times\n",
      "[mp3 @ 0x7f9c26b04180] Estimating duration from bitrate, this may be inaccurate\n",
      "    Last message repeated 2 times\n",
      "[mp3 @ 0x7f9c26e041c0] Estimating duration from bitrate, this may be inaccurate\n",
      "[mp3 @ 0x7f9c26b041c0] Estimating duration from bitrate, this may be inaccurate\n",
      "[mp3 @ 0x7f9c26e04080] Estimating duration from bitrate, this may be inaccurate\n",
      "[mp3 @ 0x7f9c26e04680] Estimating duration from bitrate, this may be inaccurate\n",
      "[mp3 @ 0x7f9c26b041c0] Estimating duration from bitrate, this may be inaccurate\n",
      "[mp3 @ 0x7f9c26e04080] Estimating duration from bitrate, this may be inaccurate\n",
      "[mp3 @ 0x7f9c25f04dc0] Estimating duration from bitrate, this may be inaccurate\n",
      "[mp3 @ 0x7f9c26b041c0] Estimating duration from bitrate, this may be inaccurate\n",
      "[mp3 @ 0x7f9c26e040c0] Estimating duration from bitrate, this may be inaccurate\n",
      "[mp3 @ 0x7f9c26b04180] Estimating duration from bitrate, this may be inaccurate\n",
      "[mp3 @ 0x7f9c26f04080] Estimating duration from bitrate, this may be inaccurate\n",
      "[mp3 @ 0x7f9c25f04dc0] Estimating duration from bitrate, this may be inaccurate\n",
      "    Last message repeated 1 times\n",
      "[mp3 @ 0x7f9c26b041c0] Estimating duration from bitrate, this may be inaccurate\n",
      "[mp3 @ 0x7f9c25f04dc0] Estimating duration from bitrate, this may be inaccurate\n",
      "[mp3 @ 0x7f9c26e042c0] Estimating duration from bitrate, this may be inaccurate\n",
      "[mp3 @ 0x7f9c25f04dc0] Estimating duration from bitrate, this may be inaccurate\n",
      "[mp3 @ 0x7f9c2680ef80] Estimating duration from bitrate, this may be inaccurate\n",
      "[mp3 @ 0x7f9c26e042c0] Estimating duration from bitrate, this may be inaccurate\n",
      "[mp3 @ 0x7f9c25f04dc0] Estimating duration from bitrate, this may be inaccurate\n",
      "[mp3 @ 0x7f9c26e04080] Estimating duration from bitrate, this may be inaccurate\n"
     ]
    },
    {
     "name": "stderr",
     "output_type": "stream",
     "text": [
      "[mp3 @ 0x7f9c2680ef80] Estimating duration from bitrate, this may be inaccurate\n",
      "[mp3 @ 0x7f9c26e040c0] Estimating duration from bitrate, this may be inaccurate\n",
      "[mp3 @ 0x7f9c26e04500] Estimating duration from bitrate, this may be inaccurate\n",
      "[mp3 @ 0x7f9c26b041c0] Estimating duration from bitrate, this may be inaccurate\n",
      "[mp3 @ 0x7f9c25f04ec0] Estimating duration from bitrate, this may be inaccurate\n",
      "[mp3 @ 0x7f9c25f04dc0] Estimating duration from bitrate, this may be inaccurate\n",
      "[mp3 @ 0x7f9c2680ef80] Estimating duration from bitrate, this may be inaccurate\n",
      "[mp3 @ 0x7f9c25f04dc0] Estimating duration from bitrate, this may be inaccurate\n",
      "[mp3 @ 0x7f9c26e04180] Estimating duration from bitrate, this may be inaccurate\n",
      "[mp3 @ 0x7f9c26b041c0] Estimating duration from bitrate, this may be inaccurate\n",
      "[mp3 @ 0x7f9c26e041c0] Estimating duration from bitrate, this may be inaccurate\n",
      "[mp3 @ 0x7f9c26e04080] Estimating duration from bitrate, this may be inaccurate\n",
      "[mp3 @ 0x7f9c2680ef80] Estimating duration from bitrate, this may be inaccurate\n",
      "    Last message repeated 1 times\n",
      "[mp3 @ 0x7f9c25f04dc0] Estimating duration from bitrate, this may be inaccurate\n",
      "[mp3 @ 0x7f9c26814d80] Estimating duration from bitrate, this may be inaccurate\n",
      "[mp3 @ 0x7f9c25f04dc0] Estimating duration from bitrate, this may be inaccurate\n",
      "[mp3 @ 0x7f9c26e04080] Estimating duration from bitrate, this may be inaccurate\n",
      "[mp3 @ 0x7f9c25f04fc0] Estimating duration from bitrate, this may be inaccurate\n",
      "[mp3 @ 0x7f9c26e04080] Estimating duration from bitrate, this may be inaccurate\n",
      "[mp3 @ 0x7f9c2680ef80] Estimating duration from bitrate, this may be inaccurate\n",
      "[mp3 @ 0x7f9c25f04dc0] Estimating duration from bitrate, this may be inaccurate\n",
      "[mp3 @ 0x7f9c2680ef80] Estimating duration from bitrate, this may be inaccurate\n",
      "[mp3 @ 0x7f9c26e040c0] Estimating duration from bitrate, this may be inaccurate\n",
      "[mp3 @ 0x7f9c26e04080] Estimating duration from bitrate, this may be inaccurate\n",
      "[mp3 @ 0x7f9c26b041c0] Estimating duration from bitrate, this may be inaccurate\n",
      "[mp3 @ 0x7f9c26e04080] Estimating duration from bitrate, this may be inaccurate\n",
      "[mp3 @ 0x7f9c25f04dc0] Estimating duration from bitrate, this may be inaccurate\n",
      "[mp3 @ 0x7f9c26d04080] Estimating duration from bitrate, this may be inaccurate\n",
      "[mp3 @ 0x7f9c2680ef80] Estimating duration from bitrate, this may be inaccurate\n",
      "    Last message repeated 1 times\n",
      "[mp3 @ 0x7f9c25f04dc0] Estimating duration from bitrate, this may be inaccurate\n",
      "    Last message repeated 2 times\n",
      "[mp3 @ 0x7f9c26b041c0] Estimating duration from bitrate, this may be inaccurate\n",
      "    Last message repeated 1 times\n",
      "[mp3 @ 0x7f9c2680ef80] Estimating duration from bitrate, this may be inaccurate\n",
      "[mp3 @ 0x7f9c26b04540] Estimating duration from bitrate, this may be inaccurate\n",
      "[mp3 @ 0x7f9c26e04080] Estimating duration from bitrate, this may be inaccurate\n",
      "[mp3 @ 0x7f9c2680ef80] Estimating duration from bitrate, this may be inaccurate\n",
      "[mp3 @ 0x7f9c26e04080] Estimating duration from bitrate, this may be inaccurate\n",
      "[mp3 @ 0x7f9c25f04dc0] Estimating duration from bitrate, this may be inaccurate\n",
      "    Last message repeated 1 times\n",
      "[mp3 @ 0x7f9c26e04080] Estimating duration from bitrate, this may be inaccurate\n",
      "[mp3 @ 0x7f9c25f04dc0] Estimating duration from bitrate, this may be inaccurate\n",
      "[mp3 @ 0x7f9c25f05380] Estimating duration from bitrate, this may be inaccurate\n",
      "[mp3 @ 0x7f9c26e04080] Estimating duration from bitrate, this may be inaccurate\n",
      "[mp3 @ 0x7f9c25f04ec0] Estimating duration from bitrate, this may be inaccurate\n",
      "[mp3 @ 0x7f9c26b041c0] Estimating duration from bitrate, this may be inaccurate\n",
      "[mp3 @ 0x7f9c25f04dc0] Estimating duration from bitrate, this may be inaccurate\n",
      "    Last message repeated 1 times\n",
      "[mp3 @ 0x7f9c26b041c0] Estimating duration from bitrate, this may be inaccurate\n",
      "[mp3 @ 0x7f9c2680ef80] Estimating duration from bitrate, this may be inaccurate\n",
      "[mp3 @ 0x7f9c26e04080] Estimating duration from bitrate, this may be inaccurate\n",
      "[mp3 @ 0x7f9c2680ef80] Estimating duration from bitrate, this may be inaccurate\n",
      "    Last message repeated 2 times\n",
      "[mp3 @ 0x7f9c26e04080] Estimating duration from bitrate, this may be inaccurate\n",
      "    Last message repeated 2 times\n",
      "[mp3 @ 0x7f9c26814d80] Estimating duration from bitrate, this may be inaccurate\n",
      "    Last message repeated 1 times\n",
      "[mp3 @ 0x7f9c26b04180] Estimating duration from bitrate, this may be inaccurate\n",
      "[mp3 @ 0x7f9c2680ef80] Estimating duration from bitrate, this may be inaccurate\n",
      "[mp3 @ 0x7f9c2680ef80] Estimating duration from bitrate, this may be inaccurate\n",
      "[mp3 @ 0x7f9c26b041c0] Estimating duration from bitrate, this may be inaccurate\n",
      "[mp3 @ 0x7f9c25f05000] Estimating duration from bitrate, this may be inaccurate\n",
      "[mp3 @ 0x7f9c26b04180] Estimating duration from bitrate, this may be inaccurate\n",
      "[mp3 @ 0x7f9c2680ef80] Estimating duration from bitrate, this may be inaccurate\n",
      "    Last message repeated 1 times\n",
      "[mp3 @ 0x7f9c26b041c0] Estimating duration from bitrate, this may be inaccurate\n",
      "[mp3 @ 0x7f9c26f041c0] Estimating duration from bitrate, this may be inaccurate\n",
      "[mp3 @ 0x7f9c26d04080] Estimating duration from bitrate, this may be inaccurate\n",
      "[mp3 @ 0x7f9c26e04100] Estimating duration from bitrate, this may be inaccurate\n",
      "[mp3 @ 0x7f9c26e040c0] Estimating duration from bitrate, this may be inaccurate\n",
      "[mp3 @ 0x7f9c26b041c0] Estimating duration from bitrate, this may be inaccurate\n",
      "    Last message repeated 1 times\n",
      "[mp3 @ 0x7f9c25f04dc0] Estimating duration from bitrate, this may be inaccurate\n",
      "    Last message repeated 1 times\n",
      "[mp3 @ 0x7f9c26e04080] Estimating duration from bitrate, this may be inaccurate\n",
      "[mp3 @ 0x7f9c2680ef80] Estimating duration from bitrate, this may be inaccurate\n",
      "[mp3 @ 0x7f9c26904400] Estimating duration from bitrate, this may be inaccurate\n",
      "[mp3 @ 0x7f9c26b04280] Estimating duration from bitrate, this may be inaccurate\n",
      "[mp3 @ 0x7f9c25f04e40] Estimating duration from bitrate, this may be inaccurate\n",
      "[mp3 @ 0x7f9c26e042c0] Estimating duration from bitrate, this may be inaccurate\n",
      "[mp3 @ 0x7f9c2680ef80] Estimating duration from bitrate, this may be inaccurate\n",
      "    Last message repeated 1 times\n",
      "[mp3 @ 0x7f9c26e04180] Estimating duration from bitrate, this may be inaccurate\n",
      "[mp3 @ 0x7f9c2680ef80] Estimating duration from bitrate, this may be inaccurate\n",
      "    Last message repeated 1 times\n",
      "[mp3 @ 0x7f9c26e04080] Estimating duration from bitrate, this may be inaccurate\n",
      "    Last message repeated 4 times\n",
      "[mp3 @ 0x7f9c26812580] Estimating duration from bitrate, this may be inaccurate\n",
      "[mp3 @ 0x7f9c26e04080] Estimating duration from bitrate, this may be inaccurate\n",
      "[mp3 @ 0x7f9c25f04dc0] Estimating duration from bitrate, this may be inaccurate\n",
      "[mp3 @ 0x7f9c26e04080] Estimating duration from bitrate, this may be inaccurate\n",
      "    Last message repeated 1 times\n",
      "[mp3 @ 0x7f9c26b041c0] Estimating duration from bitrate, this may be inaccurate\n",
      "[mp3 @ 0x7f9c26b04180] Estimating duration from bitrate, this may be inaccurate\n",
      "    Last message repeated 1 times\n",
      "[mp3 @ 0x7f9c25f04dc0] Estimating duration from bitrate, this may be inaccurate\n",
      "    Last message repeated 1 times\n",
      "[mp3 @ 0x7f9c26e040c0] Estimating duration from bitrate, this may be inaccurate\n",
      "[mp3 @ 0x7f9c26e04080] Estimating duration from bitrate, this may be inaccurate\n",
      "[mp3 @ 0x7f9c2680ef80] Estimating duration from bitrate, this may be inaccurate\n",
      "[mp3 @ 0x7f9c25f04dc0] Estimating duration from bitrate, this may be inaccurate\n",
      "[mp3 @ 0x7f9c26904400] Estimating duration from bitrate, this may be inaccurate\n",
      "[mp3 @ 0x7f9c25f04dc0] Estimating duration from bitrate, this may be inaccurate\n",
      "[mp3 @ 0x7f9c26812580] Estimating duration from bitrate, this may be inaccurate\n",
      "[mp3 @ 0x7f9c26c04180] Estimating duration from bitrate, this may be inaccurate\n",
      "[mp3 @ 0x7f9c26b041c0] Estimating duration from bitrate, this may be inaccurate\n",
      "[mp3 @ 0x7f9c26e04840] Estimating duration from bitrate, this may be inaccurate\n",
      "[mp3 @ 0x7f9c25f04dc0] Estimating duration from bitrate, this may be inaccurate\n",
      "[mp3 @ 0x7f9c26b04580] Estimating duration from bitrate, this may be inaccurate\n",
      "[mp3 @ 0x7f9c26e04840] Estimating duration from bitrate, this may be inaccurate\n",
      "[mp3 @ 0x7f9c26e041c0] Estimating duration from bitrate, this may be inaccurate\n",
      "[mp3 @ 0x7f9c26b04340] Estimating duration from bitrate, this may be inaccurate\n",
      "[mp3 @ 0x7f9c26b04180] Estimating duration from bitrate, this may be inaccurate\n",
      "[mp3 @ 0x7f9c26812580] Estimating duration from bitrate, this may be inaccurate\n"
     ]
    },
    {
     "name": "stderr",
     "output_type": "stream",
     "text": [
      "[mp3 @ 0x7f9c25f04dc0] Estimating duration from bitrate, this may be inaccurate\n",
      "[mp3 @ 0x7f9c26e04080] Estimating duration from bitrate, this may be inaccurate\n",
      "[mp3 @ 0x7f9c26b041c0] Estimating duration from bitrate, this may be inaccurate\n",
      "[mp3 @ 0x7f9c25f04dc0] Estimating duration from bitrate, this may be inaccurate\n",
      "[mp3 @ 0x7f9c26e040c0] Estimating duration from bitrate, this may be inaccurate\n",
      "[mp3 @ 0x7f9c25f04dc0] Estimating duration from bitrate, this may be inaccurate\n",
      "[mp3 @ 0x7f9c26e04080] Estimating duration from bitrate, this may be inaccurate\n",
      "[mp3 @ 0x7f9c26b041c0] Estimating duration from bitrate, this may be inaccurate\n",
      "    Last message repeated 3 times\n",
      "[mp3 @ 0x7f9c2680ef80] Estimating duration from bitrate, this may be inaccurate\n",
      "[mp3 @ 0x7f9c26f04080] Estimating duration from bitrate, this may be inaccurate\n",
      "[mp3 @ 0x7f9c26814d80] Estimating duration from bitrate, this may be inaccurate\n",
      "[mp3 @ 0x7f9c26c041c0] Estimating duration from bitrate, this may be inaccurate\n",
      "[mp3 @ 0x7f9c2680ef80] Estimating duration from bitrate, this may be inaccurate\n",
      "[mp3 @ 0x7f9c26e04080] Estimating duration from bitrate, this may be inaccurate\n",
      "[mp3 @ 0x7f9c2680ef80] Estimating duration from bitrate, this may be inaccurate\n",
      "[mp3 @ 0x7f9c26e04080] Estimating duration from bitrate, this may be inaccurate\n"
     ]
    },
    {
     "name": "stdout",
     "output_type": "stream",
     "text": [
      "Generate full audio: ./DraculaBramStoker/project_file/audio/345-p1_txt.mp3\n",
      "./DraculaBramStoker/project_file/audio/345-p1_txt.mp3\n"
     ]
    },
    {
     "name": "stderr",
     "output_type": "stream",
     "text": [
      "[mp3 @ 0x7f9c25f04dc0] Estimating duration from bitrate, this may be inaccurate\n",
      "[mp3 @ 0x7f9c26b041c0] Estimating duration from bitrate, this may be inaccurate\n",
      "[mp3 @ 0x7f9c26e04080] Estimating duration from bitrate, this may be inaccurate\n",
      "[mp3 @ 0x7f9c2680ef80] Estimating duration from bitrate, this may be inaccurate\n",
      "[mp3 @ 0x7f9c26b04180] Estimating duration from bitrate, this may be inaccurate\n",
      "size=  117894kB time=08:23:00.79 bitrate=  32.0kbits/s speed=4.89e+03x    \n",
      "video:0kB audio:117894kB subtitle:0kB other streams:0kB global headers:0kB muxing overhead: 0.000196%\n"
     ]
    }
   ],
   "source": [
    "# Merge audio files => full length\n",
    "file_name = \"345-p1.txt\"\n",
    "print(test_tta.merge_audio_files(file_name))"
   ]
  },
  {
   "cell_type": "code",
   "execution_count": 46,
   "id": "d939fd2a",
   "metadata": {},
   "outputs": [
    {
     "name": "stdout",
     "output_type": "stream",
     "text": [
      "Generate track list: ./DraculaBramStoker/project_file/audio/345-p2_txt/track_list.txt [total: 229 files]\n"
     ]
    },
    {
     "name": "stderr",
     "output_type": "stream",
     "text": [
      "ffmpeg version 5.1.2 Copyright (c) 2000-2022 the FFmpeg developers\n",
      "  built with Apple clang version 14.0.0 (clang-1400.0.29.102)\n",
      "  configuration: --prefix=/usr/local/Cellar/ffmpeg/5.1.2 --enable-shared --enable-pthreads --enable-version3 --cc=clang --host-cflags= --host-ldflags= --enable-ffplay --enable-gnutls --enable-gpl --enable-libaom --enable-libbluray --enable-libdav1d --enable-libmp3lame --enable-libopus --enable-librav1e --enable-librist --enable-librubberband --enable-libsnappy --enable-libsrt --enable-libtesseract --enable-libtheora --enable-libvidstab --enable-libvmaf --enable-libvorbis --enable-libvpx --enable-libwebp --enable-libx264 --enable-libx265 --enable-libxml2 --enable-libxvid --enable-lzma --enable-libfontconfig --enable-libfreetype --enable-frei0r --enable-libass --enable-libopencore-amrnb --enable-libopencore-amrwb --enable-libopenjpeg --enable-libspeex --enable-libsoxr --enable-libzmq --enable-libzimg --disable-libjack --disable-indev=jack --enable-videotoolbox\n",
      "  libavutil      57. 28.100 / 57. 28.100\n",
      "  libavcodec     59. 37.100 / 59. 37.100\n",
      "  libavformat    59. 27.100 / 59. 27.100\n",
      "  libavdevice    59.  7.100 / 59.  7.100\n",
      "  libavfilter     8. 44.100 /  8. 44.100\n",
      "  libswscale      6.  7.100 /  6.  7.100\n",
      "  libswresample   4.  7.100 /  4.  7.100\n",
      "  libpostproc    56.  6.100 / 56.  6.100\n",
      "[mp3 @ 0x7f7bcd30bbc0] Estimating duration from bitrate, this may be inaccurate\n",
      "Input #0, concat, from './DraculaBramStoker/project_file/audio/345-p2_txt/track_list.txt':\n",
      "  Duration: N/A, start: 0.000000, bitrate: 32 kb/s\n",
      "  Stream #0:0: Audio: mp3, 24000 Hz, mono, fltp, 32 kb/s\n",
      "Output #0, mp3, to './DraculaBramStoker/project_file/audio/345-p2_txt.mp3':\n",
      "  Metadata:\n",
      "    TSSE            : Lavf59.27.100\n",
      "  Stream #0:0: Audio: mp3, 24000 Hz, mono, fltp, 32 kb/s\n",
      "Stream mapping:\n",
      "  Stream #0:0 -> #0:0 (copy)\n",
      "Press [q] to stop, [?] for help\n",
      "[mp3 @ 0x7f7bcd204240] Estimating duration from bitrate, this may be inaccurate\n",
      "[mp3 @ 0x7f7bcd30bbc0] Estimating duration from bitrate, this may be inaccurate\n",
      "[mp3 @ 0x7f7bcd30ba80] Estimating duration from bitrate, this may be inaccurate\n",
      "[mp3 @ 0x7f7bcbf05140] Estimating duration from bitrate, this may be inaccurate\n",
      "    Last message repeated 1 times\n",
      "[mp3 @ 0x7f7bcd704140] Estimating duration from bitrate, this may be inaccurate\n",
      "[mp3 @ 0x7f7bcd205640] Estimating duration from bitrate, this may be inaccurate\n",
      "[mp3 @ 0x7f7bcbf05140] Estimating duration from bitrate, this may be inaccurate\n",
      "    Last message repeated 1 times\n",
      "[mp3 @ 0x7f7bcd205640] Estimating duration from bitrate, this may be inaccurate\n",
      "[mp3 @ 0x7f7bcd0047c0] Estimating duration from bitrate, this may be inaccurate\n",
      "[mp3 @ 0x7f7bcd30ba80] Estimating duration from bitrate, this may be inaccurate\n",
      "[mp3 @ 0x7f7bcd205680] Estimating duration from bitrate, this may be inaccurate\n",
      "[mp3 @ 0x7f7bcd206000] Estimating duration from bitrate, this may be inaccurate\n",
      "[mp3 @ 0x7f7bcd205640] Estimating duration from bitrate, this may be inaccurate\n",
      "[mp3 @ 0x7f7bcd004940] Estimating duration from bitrate, this may be inaccurate\n",
      "[mp3 @ 0x7f7bcbf05140] Estimating duration from bitrate, this may be inaccurate\n",
      "[mp3 @ 0x7f7bcd004800] Estimating duration from bitrate, this may be inaccurate\n",
      "[mp3 @ 0x7f7bcbf05140] Estimating duration from bitrate, this may be inaccurate\n",
      "[mp3 @ 0x7f7bcd205640] Estimating duration from bitrate, this may be inaccurate\n",
      "[mp3 @ 0x7f7bcd0047c0] Estimating duration from bitrate, this may be inaccurate\n",
      "[mp3 @ 0x7f7bcd209a80] Estimating duration from bitrate, this may be inaccurate\n",
      "[mp3 @ 0x7f7bcd30ba80] Estimating duration from bitrate, this may be inaccurate\n",
      "[mp3 @ 0x7f7bcd209280] Estimating duration from bitrate, this may be inaccurate\n",
      "[mp3 @ 0x7f7bcd0047c0] Estimating duration from bitrate, this may be inaccurate\n",
      "    Last message repeated 1 times\n",
      "[mp3 @ 0x7f7bcd209a80] Estimating duration from bitrate, this may be inaccurate\n",
      "[mp3 @ 0x7f7bcd30ba80] Estimating duration from bitrate, this may be inaccurate\n",
      "[mp3 @ 0x7f7bcbf05140] Estimating duration from bitrate, this may be inaccurate\n",
      "[mp3 @ 0x7f7bcd30bd00] Estimating duration from bitrate, this may be inaccurate\n",
      "[mp3 @ 0x7f7bcd0047c0] Estimating duration from bitrate, this may be inaccurate\n",
      "[mp3 @ 0x7f7bcd209a80] Estimating duration from bitrate, this may be inaccurate\n",
      "[mp3 @ 0x7f7bcd0047c0] Estimating duration from bitrate, this may be inaccurate\n",
      "[mp3 @ 0x7f7bcd30ba80] Estimating duration from bitrate, this may be inaccurate\n",
      "    Last message repeated 2 times\n",
      "[mp3 @ 0x7f7bcd004840] Estimating duration from bitrate, this may be inaccurate\n",
      "[mp3 @ 0x7f7bcd30ba80] Estimating duration from bitrate, this may be inaccurate\n",
      "[mp3 @ 0x7f7bcd209a80] Estimating duration from bitrate, this may be inaccurate\n",
      "[mp3 @ 0x7f7bcd209280] Estimating duration from bitrate, this may be inaccurate\n",
      "[mp3 @ 0x7f7bcd209a80] Estimating duration from bitrate, this may be inaccurate\n",
      "[mp3 @ 0x7f7bcbf05140] Estimating duration from bitrate, this may be inaccurate\n",
      "[mp3 @ 0x7f7bcd0047c0] Estimating duration from bitrate, this may be inaccurate\n",
      "[mp3 @ 0x7f7bcd209a80] Estimating duration from bitrate, this may be inaccurate\n",
      "[mp3 @ 0x7f7bcbf05140] Estimating duration from bitrate, this may be inaccurate\n",
      "[mp3 @ 0x7f7bcd0047c0] Estimating duration from bitrate, this may be inaccurate\n",
      "[mp3 @ 0x7f7bcbf05300] Estimating duration from bitrate, this may be inaccurate\n",
      "[mp3 @ 0x7f7bcd30ba80] Estimating duration from bitrate, this may be inaccurate\n",
      "[mp3 @ 0x7f7bcd004800] Estimating duration from bitrate, this may be inaccurate\n",
      "[mp3 @ 0x7f7bcd30ba80] Estimating duration from bitrate, this may be inaccurate\n",
      "[mp3 @ 0x7f7bcd209400] Estimating duration from bitrate, this may be inaccurate\n",
      "[mp3 @ 0x7f7bcbf05140] Estimating duration from bitrate, this may be inaccurate\n",
      "[mp3 @ 0x7f7bcd209280] Estimating duration from bitrate, this may be inaccurate\n",
      "[mp3 @ 0x7f7bcbf05140] Estimating duration from bitrate, this may be inaccurate\n",
      "[mp3 @ 0x7f7bcd30ba80] Estimating duration from bitrate, this may be inaccurate\n",
      "[mp3 @ 0x7f7bcd209a80] Estimating duration from bitrate, this may be inaccurate\n",
      "[mp3 @ 0x7f7bcbf05140] Estimating duration from bitrate, this may be inaccurate\n",
      "[mp3 @ 0x7f7bcd209a80] Estimating duration from bitrate, this may be inaccurate\n",
      "[mp3 @ 0x7f7bcbf05140] Estimating duration from bitrate, this may be inaccurate\n",
      "[mp3 @ 0x7f7bcd0047c0] Estimating duration from bitrate, this may be inaccurate\n",
      "[mp3 @ 0x7f7bcbf05280] Estimating duration from bitrate, this may be inaccurate\n",
      "[mp3 @ 0x7f7bcd209e00] Estimating duration from bitrate, this may be inaccurate\n",
      "[mp3 @ 0x7f7bcd209cc0] Estimating duration from bitrate, this may be inaccurate\n",
      "[mp3 @ 0x7f7bcd504080] Estimating duration from bitrate, this may be inaccurate\n",
      "[mp3 @ 0x7f7bcd0047c0] Estimating duration from bitrate, this may be inaccurate\n",
      "[mp3 @ 0x7f7bcd30bc80] Estimating duration from bitrate, this may be inaccurate\n",
      "[mp3 @ 0x7f7bcd0047c0] Estimating duration from bitrate, this may be inaccurate\n",
      "[mp3 @ 0x7f7bcd1042c0] Estimating duration from bitrate, this may be inaccurate\n",
      "[mp3 @ 0x7f7bcbf05140] Estimating duration from bitrate, this may be inaccurate\n",
      "[mp3 @ 0x7f7bcd0047c0] Estimating duration from bitrate, this may be inaccurate\n",
      "[mp3 @ 0x7f7bcd504080] Estimating duration from bitrate, this may be inaccurate\n",
      "[mp3 @ 0x7f7bcd30ba80] Estimating duration from bitrate, this may be inaccurate\n",
      "[mp3 @ 0x7f7bcbf05140] Estimating duration from bitrate, this may be inaccurate\n",
      "[mp3 @ 0x7f7bcd209280] Estimating duration from bitrate, this may be inaccurate\n",
      "[mp3 @ 0x7f7bcd005180] Estimating duration from bitrate, this may be inaccurate\n",
      "[mp3 @ 0x7f7bcd004880] Estimating duration from bitrate, this may be inaccurate\n",
      "[mp3 @ 0x7f7bcd0047c0] Estimating duration from bitrate, this may be inaccurate\n",
      "[mp3 @ 0x7f7bcd30ba80] Estimating duration from bitrate, this may be inaccurate\n",
      "[mp3 @ 0x7f7bcd209280] Estimating duration from bitrate, this may be inaccurate\n",
      "[mp3 @ 0x7f7bcd30ba80] Estimating duration from bitrate, this may be inaccurate\n",
      "    Last message repeated 2 times\n",
      "[mp3 @ 0x7f7bcd0047c0] Estimating duration from bitrate, this may be inaccurate\n",
      "[mp3 @ 0x7f7bcd1042c0] Estimating duration from bitrate, this may be inaccurate\n",
      "[mp3 @ 0x7f7bcbf05140] Estimating duration from bitrate, this may be inaccurate\n",
      "    Last message repeated 1 times\n",
      "[mp3 @ 0x7f7bcd204200] Estimating duration from bitrate, this may be inaccurate\n",
      "[mp3 @ 0x7f7bcd209280] Estimating duration from bitrate, this may be inaccurate\n",
      "[mp3 @ 0x7f7bcd30ba80] Estimating duration from bitrate, this may be inaccurate\n",
      "[mp3 @ 0x7f7bcbf05140] Estimating duration from bitrate, this may be inaccurate\n",
      "[mp3 @ 0x7f7bcd0047c0] Estimating duration from bitrate, this may be inaccurate\n",
      "[mp3 @ 0x7f7bcd30ba80] Estimating duration from bitrate, this may be inaccurate\n"
     ]
    },
    {
     "name": "stderr",
     "output_type": "stream",
     "text": [
      "[mp3 @ 0x7f7bcd209280] Estimating duration from bitrate, this may be inaccurate\n",
      "[mp3 @ 0x7f7bcd30bac0] Estimating duration from bitrate, this may be inaccurate\n",
      "[mp3 @ 0x7f7bcbf05140] Estimating duration from bitrate, this may be inaccurate\n",
      "[mp3 @ 0x7f7bcd30ba80] Estimating duration from bitrate, this may be inaccurate\n",
      "[mp3 @ 0x7f7bcd0047c0] Estimating duration from bitrate, this may be inaccurate\n",
      "[mp3 @ 0x7f7bcd30ba80] Estimating duration from bitrate, this may be inaccurate\n",
      "[mp3 @ 0x7f7bcd0047c0] Estimating duration from bitrate, this may be inaccurate\n",
      "[mp3 @ 0x7f7bcbf05140] Estimating duration from bitrate, this may be inaccurate\n",
      "[mp3 @ 0x7f7bcd204200] Estimating duration from bitrate, this may be inaccurate\n",
      "[mp3 @ 0x7f7bcbf05140] Estimating duration from bitrate, this may be inaccurate\n",
      "[mp3 @ 0x7f7bcd209280] Estimating duration from bitrate, this may be inaccurate\n",
      "[mp3 @ 0x7f7bcd30ba80] Estimating duration from bitrate, this may be inaccurate\n",
      "[mp3 @ 0x7f7bcbf05140] Estimating duration from bitrate, this may be inaccurate\n",
      "[mp3 @ 0x7f7bcd704080] Estimating duration from bitrate, this may be inaccurate\n",
      "[mp3 @ 0x7f7bcbf05140] Estimating duration from bitrate, this may be inaccurate\n",
      "[mp3 @ 0x7f7bcd30bc40] Estimating duration from bitrate, this may be inaccurate\n",
      "[mp3 @ 0x7f7bcbf05180] Estimating duration from bitrate, this may be inaccurate\n",
      "[mp3 @ 0x7f7bcd204400] Estimating duration from bitrate, this may be inaccurate\n",
      "[mp3 @ 0x7f7bcbf05240] Estimating duration from bitrate, this may be inaccurate\n",
      "[mp3 @ 0x7f7bcd0047c0] Estimating duration from bitrate, this may be inaccurate\n",
      "    Last message repeated 1 times\n",
      "[mp3 @ 0x7f7bcd504080] Estimating duration from bitrate, this may be inaccurate\n",
      "[mp3 @ 0x7f7bcbf05140] Estimating duration from bitrate, this may be inaccurate\n",
      "[mp3 @ 0x7f7bcd004f80] Estimating duration from bitrate, this may be inaccurate\n",
      "[mp3 @ 0x7f7bcbf05180] Estimating duration from bitrate, this may be inaccurate\n",
      "[mp3 @ 0x7f7bcd30ba80] Estimating duration from bitrate, this may be inaccurate\n",
      "[mp3 @ 0x7f7bcd209a80] Estimating duration from bitrate, this may be inaccurate\n",
      "[mp3 @ 0x7f7bcd20c100] Estimating duration from bitrate, this may be inaccurate\n",
      "[mp3 @ 0x7f7bcd30ba80] Estimating duration from bitrate, this may be inaccurate\n",
      "[mp3 @ 0x7f7bcbf05140] Estimating duration from bitrate, this may be inaccurate\n",
      "[mp3 @ 0x7f7bcd30ba80] Estimating duration from bitrate, this may be inaccurate\n",
      "[mp3 @ 0x7f7bcd20c100] Estimating duration from bitrate, this may be inaccurate\n",
      "[mp3 @ 0x7f7bcbf05140] Estimating duration from bitrate, this may be inaccurate\n",
      "[mp3 @ 0x7f7bcd30ba80] Estimating duration from bitrate, this may be inaccurate\n",
      "[mp3 @ 0x7f7bcbf05140] Estimating duration from bitrate, this may be inaccurate\n",
      "[mp3 @ 0x7f7bcd0047c0] Estimating duration from bitrate, this may be inaccurate\n",
      "    Last message repeated 1 times\n",
      "[mp3 @ 0x7f7bcd30ba80] Estimating duration from bitrate, this may be inaccurate\n",
      "[mp3 @ 0x7f7bcd0048c0] Estimating duration from bitrate, this may be inaccurate\n",
      "[mp3 @ 0x7f7bcd30ba80] Estimating duration from bitrate, this may be inaccurate\n",
      "[mp3 @ 0x7f7bcd0047c0] Estimating duration from bitrate, this may be inaccurate\n",
      "[mp3 @ 0x7f7bcd30ba80] Estimating duration from bitrate, this may be inaccurate\n",
      "[mp3 @ 0x7f7bcbf05140] Estimating duration from bitrate, this may be inaccurate\n",
      "    Last message repeated 1 times\n",
      "[mp3 @ 0x7f7bcd30ba80] Estimating duration from bitrate, this may be inaccurate\n",
      "[mp3 @ 0x7f7bcd0047c0] Estimating duration from bitrate, this may be inaccurate\n",
      "[mp3 @ 0x7f7bcbf05140] Estimating duration from bitrate, this may be inaccurate\n",
      "    Last message repeated 1 times\n",
      "[mp3 @ 0x7f7bcd209a80] Estimating duration from bitrate, this may be inaccurate\n",
      "[mp3 @ 0x7f7bcd30ba80] Estimating duration from bitrate, this may be inaccurate\n",
      "    Last message repeated 1 times\n",
      "[mp3 @ 0x7f7bcd0047c0] Estimating duration from bitrate, this may be inaccurate\n",
      "[mp3 @ 0x7f7bcbf05140] Estimating duration from bitrate, this may be inaccurate\n",
      "[mp3 @ 0x7f7bcd209a80] Estimating duration from bitrate, this may be inaccurate\n",
      "[mp3 @ 0x7f7bcd20c100] Estimating duration from bitrate, this may be inaccurate\n",
      "[mp3 @ 0x7f7bcbf05140] Estimating duration from bitrate, this may be inaccurate\n",
      "    Last message repeated 2 times\n",
      "[mp3 @ 0x7f7bcd0048c0] Estimating duration from bitrate, this may be inaccurate\n",
      "[mp3 @ 0x7f7bcd209280] Estimating duration from bitrate, this may be inaccurate\n",
      "[mp3 @ 0x7f7bcd30ba80] Estimating duration from bitrate, this may be inaccurate\n",
      "[mp3 @ 0x7f7bcd0047c0] Estimating duration from bitrate, this may be inaccurate\n",
      "    Last message repeated 1 times\n",
      "[mp3 @ 0x7f7bcbf05140] Estimating duration from bitrate, this may be inaccurate\n",
      "    Last message repeated 1 times\n",
      "[mp3 @ 0x7f7bcd0047c0] Estimating duration from bitrate, this may be inaccurate\n",
      "[mp3 @ 0x7f7bcbf05240] Estimating duration from bitrate, this may be inaccurate\n",
      "[mp3 @ 0x7f7bcd30ba80] Estimating duration from bitrate, this may be inaccurate\n",
      "[mp3 @ 0x7f7bcd0047c0] Estimating duration from bitrate, this may be inaccurate\n",
      "[mp3 @ 0x7f7bcd209a80] Estimating duration from bitrate, this may be inaccurate\n",
      "[mp3 @ 0x7f7bcd0048c0] Estimating duration from bitrate, this may be inaccurate\n",
      "[mp3 @ 0x7f7bcd209a80] Estimating duration from bitrate, this may be inaccurate\n",
      "[mp3 @ 0x7f7bcd004980] Estimating duration from bitrate, this may be inaccurate\n",
      "[mp3 @ 0x7f7bcd30ba80] Estimating duration from bitrate, this may be inaccurate\n",
      "[mp3 @ 0x7f7bcd209a80] Estimating duration from bitrate, this may be inaccurate\n",
      "[mp3 @ 0x7f7bcd004800] Estimating duration from bitrate, this may be inaccurate\n",
      "[mp3 @ 0x7f7bcd30ba80] Estimating duration from bitrate, this may be inaccurate\n",
      "    Last message repeated 1 times\n",
      "[mp3 @ 0x7f7bcd004800] Estimating duration from bitrate, this may be inaccurate\n",
      "[mp3 @ 0x7f7bcd209d00] Estimating duration from bitrate, this may be inaccurate\n",
      "[mp3 @ 0x7f7bcd30ba80] Estimating duration from bitrate, this may be inaccurate\n",
      "    Last message repeated 1 times\n",
      "[mp3 @ 0x7f7bcd0047c0] Estimating duration from bitrate, this may be inaccurate\n",
      "[mp3 @ 0x7f7bcd30ba80] Estimating duration from bitrate, this may be inaccurate\n",
      "[mp3 @ 0x7f7bcd0047c0] Estimating duration from bitrate, this may be inaccurate\n",
      "[mp3 @ 0x7f7bcbf05140] Estimating duration from bitrate, this may be inaccurate\n",
      "[mp3 @ 0x7f7bcd0047c0] Estimating duration from bitrate, this may be inaccurate\n",
      "    Last message repeated 2 times\n",
      "[mp3 @ 0x7f7bcbf05140] Estimating duration from bitrate, this may be inaccurate\n",
      "    Last message repeated 1 times\n",
      "[mp3 @ 0x7f7bcd004f80] Estimating duration from bitrate, this may be inaccurate\n",
      "[mp3 @ 0x7f7bcd30ba80] Estimating duration from bitrate, this may be inaccurate\n",
      "[mp3 @ 0x7f7bcbf05140] Estimating duration from bitrate, this may be inaccurate\n",
      "    Last message repeated 1 times\n",
      "[mp3 @ 0x7f7bcd004800] Estimating duration from bitrate, this may be inaccurate\n",
      "[mp3 @ 0x7f7bcd0047c0] Estimating duration from bitrate, this may be inaccurate\n",
      "[mp3 @ 0x7f7bcd2046c0] Estimating duration from bitrate, this may be inaccurate\n",
      "[mp3 @ 0x7f7bcbf05140] Estimating duration from bitrate, this may be inaccurate\n",
      "[mp3 @ 0x7f7bcd204240] Estimating duration from bitrate, this may be inaccurate\n",
      "    Last message repeated 1 times\n",
      "[mp3 @ 0x7f7bcd20c100] Estimating duration from bitrate, this may be inaccurate\n",
      "[mp3 @ 0x7f7bcd0047c0] Estimating duration from bitrate, this may be inaccurate\n",
      "[mp3 @ 0x7f7bcd604180] Estimating duration from bitrate, this may be inaccurate\n",
      "[mp3 @ 0x7f7bcd30bb40] Estimating duration from bitrate, this may be inaccurate\n",
      "[mp3 @ 0x7f7bcd004940] Estimating duration from bitrate, this may be inaccurate\n",
      "[mp3 @ 0x7f7bcd209a80] Estimating duration from bitrate, this may be inaccurate\n",
      "[mp3 @ 0x7f7bcd206880] Estimating duration from bitrate, this may be inaccurate\n",
      "[mp3 @ 0x7f7bcd30ba80] Estimating duration from bitrate, this may be inaccurate\n",
      "[mp3 @ 0x7f7bcd0048c0] Estimating duration from bitrate, this may be inaccurate\n",
      "[mp3 @ 0x7f7bcd30ba80] Estimating duration from bitrate, this may be inaccurate\n",
      "    Last message repeated 2 times\n",
      "[mp3 @ 0x7f7bcbf05140] Estimating duration from bitrate, this may be inaccurate\n",
      "    Last message repeated 1 times\n",
      "[mp3 @ 0x7f7bcd209a80] Estimating duration from bitrate, this may be inaccurate\n",
      "[mp3 @ 0x7f7bcbf05140] Estimating duration from bitrate, this may be inaccurate\n",
      "[mp3 @ 0x7f7bcd30ba80] Estimating duration from bitrate, this may be inaccurate\n",
      "[mp3 @ 0x7f7bcd209a80] Estimating duration from bitrate, this may be inaccurate\n",
      "[mp3 @ 0x7f7bcbf05140] Estimating duration from bitrate, this may be inaccurate\n",
      "[mp3 @ 0x7f7bcd0047c0] Estimating duration from bitrate, this may be inaccurate\n"
     ]
    },
    {
     "name": "stderr",
     "output_type": "stream",
     "text": [
      "[mp3 @ 0x7f7bcd30ba80] Estimating duration from bitrate, this may be inaccurate\n",
      "[mp3 @ 0x7f7bcd0048c0] Estimating duration from bitrate, this may be inaccurate\n",
      "[mp3 @ 0x7f7bcd0047c0] Estimating duration from bitrate, this may be inaccurate\n",
      "size=  108800kB time=07:44:19.75 bitrate=  32.0kbits/s speed=5.07e+03x    \r",
      "[mp3 @ 0x7f7bcd1042c0] Estimating duration from bitrate, this may be inaccurate\n",
      "[mp3 @ 0x7f7bcd209280] Estimating duration from bitrate, this may be inaccurate\n",
      "[mp3 @ 0x7f7bcd0047c0] Estimating duration from bitrate, this may be inaccurate\n",
      "[mp3 @ 0x7f7bcd209cc0] Estimating duration from bitrate, this may be inaccurate\n",
      "[mp3 @ 0x7f7bcd209a80] Estimating duration from bitrate, this may be inaccurate\n"
     ]
    },
    {
     "name": "stdout",
     "output_type": "stream",
     "text": [
      "Generate full audio: ./DraculaBramStoker/project_file/audio/345-p2_txt.mp3\n",
      "./DraculaBramStoker/project_file/audio/345-p2_txt.mp3\n"
     ]
    },
    {
     "name": "stderr",
     "output_type": "stream",
     "text": [
      "[mp3 @ 0x7f7bcd0047c0] Estimating duration from bitrate, this may be inaccurate\n",
      "[mp3 @ 0x7f7bcbf05140] Estimating duration from bitrate, this may be inaccurate\n",
      "[mp3 @ 0x7f7bcd30ba80] Estimating duration from bitrate, this may be inaccurate\n",
      "[mp3 @ 0x7f7bcbf05180] Estimating duration from bitrate, this may be inaccurate\n",
      "[mp3 @ 0x7f7bcd209a80] Estimating duration from bitrate, this may be inaccurate\n",
      "[mp3 @ 0x7f7bcbf05140] Estimating duration from bitrate, this may be inaccurate\n",
      "[mp3 @ 0x7f7bcd209280] Estimating duration from bitrate, this may be inaccurate\n",
      "size=  115351kB time=08:12:09.67 bitrate=  32.0kbits/s speed=5.07e+03x    \n",
      "video:0kB audio:115350kB subtitle:0kB other streams:0kB global headers:0kB muxing overhead: 0.000201%\n"
     ]
    }
   ],
   "source": [
    "file_name = \"345-p2.txt\"\n",
    "print(test_tta.merge_audio_files(file_name))"
   ]
  },
  {
   "cell_type": "code",
   "execution_count": 50,
   "id": "b382e4e1",
   "metadata": {
    "scrolled": true
   },
   "outputs": [
    {
     "name": "stderr",
     "output_type": "stream",
     "text": [
      "ffmpeg version 5.1.2 Copyright (c) 2000-2022 the FFmpeg developers\n",
      "  built with Apple clang version 14.0.0 (clang-1400.0.29.102)\n",
      "  configuration: --prefix=/usr/local/Cellar/ffmpeg/5.1.2 --enable-shared --enable-pthreads --enable-version3 --cc=clang --host-cflags= --host-ldflags= --enable-ffplay --enable-gnutls --enable-gpl --enable-libaom --enable-libbluray --enable-libdav1d --enable-libmp3lame --enable-libopus --enable-librav1e --enable-librist --enable-librubberband --enable-libsnappy --enable-libsrt --enable-libtesseract --enable-libtheora --enable-libvidstab --enable-libvmaf --enable-libvorbis --enable-libvpx --enable-libwebp --enable-libx264 --enable-libx265 --enable-libxml2 --enable-libxvid --enable-lzma --enable-libfontconfig --enable-libfreetype --enable-frei0r --enable-libass --enable-libopencore-amrnb --enable-libopencore-amrwb --enable-libopenjpeg --enable-libspeex --enable-libsoxr --enable-libzmq --enable-libzimg --disable-libjack --disable-indev=jack --enable-videotoolbox\n",
      "  libavutil      57. 28.100 / 57. 28.100\n",
      "  libavcodec     59. 37.100 / 59. 37.100\n",
      "  libavformat    59. 27.100 / 59. 27.100\n",
      "  libavdevice    59.  7.100 / 59.  7.100\n",
      "  libavfilter     8. 44.100 /  8. 44.100\n",
      "  libswscale      6.  7.100 /  6.  7.100\n",
      "  libswresample   4.  7.100 /  4.  7.100\n",
      "  libpostproc    56.  6.100 / 56.  6.100\n",
      "Input #0, png_pipe, from './DraculaBramStoker/project_file/image/345-p1_txt.png':\n",
      "  Duration: N/A, bitrate: N/A\n",
      "  Stream #0:0: Video: png, rgba(pc), 1280x720 [SAR 2835:2835 DAR 16:9], 25 fps, 25 tbr, 25 tbn\n",
      "Input #1, mp3, from './DraculaBramStoker/project_file/audio/345-p1_txt.mp3':\n",
      "  Metadata:\n",
      "    encoder         : Lavf59.27.100\n",
      "  Duration: 08:23:00.79, start: 0.022042, bitrate: 32 kb/s\n",
      "  Stream #1:0: Audio: mp3, 24000 Hz, mono, fltp, 32 kb/s\n",
      "Stream mapping:\n",
      "  Stream #0:0 -> #0:0 (png (native) -> h264 (libx264))\n",
      "  Stream #1:0 -> #0:1 (mp3 (mp3float) -> aac (native))\n",
      "Press [q] to stop, [?] for help\n",
      "[libx264 @ 0x7fdfe170cb40] using SAR=1/1\n",
      "[libx264 @ 0x7fdfe170cb40] using cpu capabilities: MMX2 SSE2Fast SSSE3 SSE4.2 AVX FMA3 BMI2 AVX2\n",
      "[libx264 @ 0x7fdfe170cb40] profile High, level 3.1, 4:2:0, 8-bit\n",
      "[libx264 @ 0x7fdfe170cb40] 264 - core 164 r3095 baee400 - H.264/MPEG-4 AVC codec - Copyleft 2003-2022 - http://www.videolan.org/x264.html - options: cabac=1 ref=3 deblock=1:-3:-3 analyse=0x3:0x113 me=hex subme=7 psy=1 psy_rd=2.00:0.70 mixed_ref=1 me_range=16 chroma_me=1 trellis=1 8x8dct=1 cqm=0 deadzone=21,11 fast_pskip=1 chroma_qp_offset=-4 threads=12 lookahead_threads=2 sliced_threads=0 nr=0 decimate=1 interlaced=0 bluray_compat=0 constrained_intra=0 bframes=3 b_pyramid=2 b_adapt=1 b_bias=0 direct=1 weightb=1 open_gop=0 weightp=2 keyint=250 keyint_min=25 scenecut=40 intra_refresh=0 rc_lookahead=40 rc=crf mbtree=1 crf=23.0 qcomp=0.60 qpmin=0 qpmax=69 qpstep=4 ip_ratio=1.40 aq=1:1.20\n",
      "[aac @ 0x7fdfe170df40] Too many bits 8192.000000 > 6144 per frame requested, clamping to max\n",
      "Output #0, mp4, to './DraculaBramStoker/project_file/video/345-p1_txt.mp4':\n",
      "  Metadata:\n",
      "    encoder         : Lavf59.27.100\n",
      "  Stream #0:0: Video: h264 (avc1 / 0x31637661), yuv420p(tv, progressive), 1280x720 [SAR 1:1 DAR 16:9], q=2-31, 25 fps, 12800 tbn\n",
      "    Metadata:\n",
      "      encoder         : Lavc59.37.100 libx264\n",
      "    Side data:\n",
      "      cpb: bitrate max/min/avg: 0/0/0 buffer size: 0 vbv_delay: N/A\n",
      "  Stream #0:1: Audio: aac (LC) (mp4a / 0x6134706D), 24000 Hz, mono, fltp, 144 kb/s\n",
      "    Metadata:\n",
      "      encoder         : Lavc59.37.100 aac\n",
      "frame=754557 fps= 79 q=28.0 size= 1069824kB time=08:22:59.92 bitrate= 290.4kbits/s speed=3.16x    \r"
     ]
    },
    {
     "name": "stdout",
     "output_type": "stream",
     "text": [
      "Generate full video: ./DraculaBramStoker/project_file/video/345-p1_txt.mp4\n",
      "./DraculaBramStoker/project_file/video/345-p1_txt.mp4\n"
     ]
    },
    {
     "name": "stderr",
     "output_type": "stream",
     "text": [
      "frame=754576 fps= 79 q=-1.0 Lsize= 1088395kB time=08:23:02.92 bitrate= 295.4kbits/s speed=3.16x    \n",
      "video:704866kB audio:365302kB subtitle:0kB other streams:0kB global headers:0kB muxing overhead: 1.703189%\n",
      "[libx264 @ 0x7fdfe170cb40] frame I:3019  Avg QP:13.54  size:180392\n",
      "[libx264 @ 0x7fdfe170cb40] frame P:190153 Avg QP:13.62  size:   658\n",
      "[libx264 @ 0x7fdfe170cb40] frame B:561404 Avg QP:22.33  size:    93\n",
      "[libx264 @ 0x7fdfe170cb40] consecutive B-frames:  0.8%  0.0%  0.0% 99.2%\n",
      "[libx264 @ 0x7fdfe170cb40] mb I  I16..4:  1.0% 62.2% 36.8%\n",
      "[libx264 @ 0x7fdfe170cb40] mb P  I16..4:  0.0%  0.0%  0.0%  P16..4:  1.7%  0.2%  0.2%  0.0%  0.0%    skip:97.9%\n",
      "[libx264 @ 0x7fdfe170cb40] mb B  I16..4:  0.0%  0.0%  0.0%  B16..8:  1.8%  0.0%  0.0%  direct: 0.0%  skip:98.2%  L0:63.5% L1:36.2% BI: 0.2%\n",
      "[libx264 @ 0x7fdfe170cb40] 8x8 transform intra:62.2% inter:87.6%\n",
      "[libx264 @ 0x7fdfe170cb40] coded y,uvDC,uvAC intra: 99.7% 100.0% 99.8% inter: 0.3% 0.1% 0.0%\n",
      "[libx264 @ 0x7fdfe170cb40] i16 v,h,dc,p:  4%  0%  3% 93%\n",
      "[libx264 @ 0x7fdfe170cb40] i8 v,h,dc,ddl,ddr,vr,hd,vl,hu: 25%  9% 11%  6%  9% 12%  9% 11%  9%\n",
      "[libx264 @ 0x7fdfe170cb40] i4 v,h,dc,ddl,ddr,vr,hd,vl,hu: 19% 10%  8%  7% 12% 13% 11% 11%  8%\n",
      "[libx264 @ 0x7fdfe170cb40] i8c dc,h,v,p: 51% 14% 23% 12%\n",
      "[libx264 @ 0x7fdfe170cb40] Weighted P-Frames: Y:0.0% UV:0.0%\n",
      "[libx264 @ 0x7fdfe170cb40] ref P L0: 65.2%  0.2% 34.3%  0.4%\n",
      "[libx264 @ 0x7fdfe170cb40] ref B L0: 44.5% 55.4%  0.1%\n",
      "[libx264 @ 0x7fdfe170cb40] ref B L1: 99.3%  0.7%\n",
      "[libx264 @ 0x7fdfe170cb40] kb/s:191.31\n",
      "[aac @ 0x7fdfe170df40] Qavg: 65512.738\n"
     ]
    }
   ],
   "source": [
    "# Audio + Image => Video\n",
    "file_name = \"345-p1.txt\"\n",
    "print(test_tta.merge_video_file(file_name))"
   ]
  },
  {
   "cell_type": "code",
   "execution_count": 49,
   "id": "1e3ecaf6",
   "metadata": {},
   "outputs": [
    {
     "name": "stderr",
     "output_type": "stream",
     "text": [
      "ffmpeg version 5.1.2 Copyright (c) 2000-2022 the FFmpeg developers\n",
      "  built with Apple clang version 14.0.0 (clang-1400.0.29.102)\n",
      "  configuration: --prefix=/usr/local/Cellar/ffmpeg/5.1.2 --enable-shared --enable-pthreads --enable-version3 --cc=clang --host-cflags= --host-ldflags= --enable-ffplay --enable-gnutls --enable-gpl --enable-libaom --enable-libbluray --enable-libdav1d --enable-libmp3lame --enable-libopus --enable-librav1e --enable-librist --enable-librubberband --enable-libsnappy --enable-libsrt --enable-libtesseract --enable-libtheora --enable-libvidstab --enable-libvmaf --enable-libvorbis --enable-libvpx --enable-libwebp --enable-libx264 --enable-libx265 --enable-libxml2 --enable-libxvid --enable-lzma --enable-libfontconfig --enable-libfreetype --enable-frei0r --enable-libass --enable-libopencore-amrnb --enable-libopencore-amrwb --enable-libopenjpeg --enable-libspeex --enable-libsoxr --enable-libzmq --enable-libzimg --disable-libjack --disable-indev=jack --enable-videotoolbox\n",
      "  libavutil      57. 28.100 / 57. 28.100\n",
      "  libavcodec     59. 37.100 / 59. 37.100\n",
      "  libavformat    59. 27.100 / 59. 27.100\n",
      "  libavdevice    59.  7.100 / 59.  7.100\n",
      "  libavfilter     8. 44.100 /  8. 44.100\n",
      "  libswscale      6.  7.100 /  6.  7.100\n",
      "  libswresample   4.  7.100 /  4.  7.100\n",
      "  libpostproc    56.  6.100 / 56.  6.100\n",
      "Input #0, png_pipe, from './DraculaBramStoker/project_file/image/345-p2_txt.png':\n",
      "  Duration: N/A, bitrate: N/A\n",
      "  Stream #0:0: Video: png, rgba(pc), 1280x720 [SAR 2835:2835 DAR 16:9], 25 fps, 25 tbr, 25 tbn\n",
      "Input #1, mp3, from './DraculaBramStoker/project_file/audio/345-p2_txt.mp3':\n",
      "  Metadata:\n",
      "    encoder         : Lavf59.27.100\n",
      "  Duration: 08:12:09.67, start: 0.022042, bitrate: 32 kb/s\n",
      "  Stream #1:0: Audio: mp3, 24000 Hz, mono, fltp, 32 kb/s\n",
      "Stream mapping:\n",
      "  Stream #0:0 -> #0:0 (png (native) -> h264 (libx264))\n",
      "  Stream #1:0 -> #0:1 (mp3 (mp3float) -> aac (native))\n",
      "Press [q] to stop, [?] for help\n",
      "[libx264 @ 0x7fa41670dcc0] using SAR=1/1\n",
      "[libx264 @ 0x7fa41670dcc0] using cpu capabilities: MMX2 SSE2Fast SSSE3 SSE4.2 AVX FMA3 BMI2 AVX2\n",
      "[libx264 @ 0x7fa41670dcc0] profile High, level 3.1, 4:2:0, 8-bit\n",
      "[libx264 @ 0x7fa41670dcc0] 264 - core 164 r3095 baee400 - H.264/MPEG-4 AVC codec - Copyleft 2003-2022 - http://www.videolan.org/x264.html - options: cabac=1 ref=3 deblock=1:-3:-3 analyse=0x3:0x113 me=hex subme=7 psy=1 psy_rd=2.00:0.70 mixed_ref=1 me_range=16 chroma_me=1 trellis=1 8x8dct=1 cqm=0 deadzone=21,11 fast_pskip=1 chroma_qp_offset=-4 threads=12 lookahead_threads=2 sliced_threads=0 nr=0 decimate=1 interlaced=0 bluray_compat=0 constrained_intra=0 bframes=3 b_pyramid=2 b_adapt=1 b_bias=0 direct=1 weightb=1 open_gop=0 weightp=2 keyint=250 keyint_min=25 scenecut=40 intra_refresh=0 rc_lookahead=40 rc=crf mbtree=1 crf=23.0 qcomp=0.60 qpmin=0 qpmax=69 qpstep=4 ip_ratio=1.40 aq=1:1.20\n",
      "[aac @ 0x7fa41670ef00] Too many bits 8192.000000 > 6144 per frame requested, clamping to max\n",
      "Output #0, mp4, to './DraculaBramStoker/project_file/video/345-p2_txt.mp4':\n",
      "  Metadata:\n",
      "    encoder         : Lavf59.27.100\n",
      "  Stream #0:0: Video: h264 (avc1 / 0x31637661), yuv420p(tv, progressive), 1280x720 [SAR 1:1 DAR 16:9], q=2-31, 25 fps, 12800 tbn\n",
      "    Metadata:\n",
      "      encoder         : Lavc59.37.100 libx264\n",
      "    Side data:\n",
      "      cpb: bitrate max/min/avg: 0/0/0 buffer size: 0 vbv_delay: N/A\n",
      "  Stream #0:1: Audio: aac (LC) (mp4a / 0x6134706D), 24000 Hz, mono, fltp, 144 kb/s\n",
      "    Metadata:\n",
      "      encoder         : Lavc59.37.100 aac\n",
      "frame=738271 fps= 89 q=28.0 size= 1123840kB time=08:12:08.49 bitrate= 311.8kbits/s speed=3.54x    \r"
     ]
    },
    {
     "name": "stdout",
     "output_type": "stream",
     "text": [
      "Generate full video: ./DraculaBramStoker/project_file/video/345-p2_txt.mp4\n",
      "./DraculaBramStoker/project_file/video/345-p2_txt.mp4\n"
     ]
    },
    {
     "name": "stderr",
     "output_type": "stream",
     "text": [
      "frame=738298 fps= 89 q=-1.0 Lsize= 1141932kB time=08:12:11.80 bitrate= 316.8kbits/s speed=3.54x    \n",
      "video:766541kB audio:357558kB subtitle:0kB other streams:0kB global headers:0kB muxing overhead: 1.586499%\n",
      "[libx264 @ 0x7fa41670dcc0] frame I:2954  Avg QP:12.36  size:180679\n",
      "[libx264 @ 0x7fa41670dcc0] frame P:186051 Avg QP:12.89  size:   998\n",
      "[libx264 @ 0x7fa41670dcc0] frame B:549293 Avg QP:20.32  size:   119\n",
      "[libx264 @ 0x7fa41670dcc0] consecutive B-frames:  0.8%  0.0%  0.0% 99.2%\n",
      "[libx264 @ 0x7fa41670dcc0] mb I  I16..4:  6.5% 54.2% 39.3%\n",
      "[libx264 @ 0x7fa41670dcc0] mb P  I16..4:  0.0%  0.0%  0.0%  P16..4:  2.8%  0.3%  0.3%  0.0%  0.0%    skip:96.6%\n",
      "[libx264 @ 0x7fa41670dcc0] mb B  I16..4:  0.0%  0.0%  0.0%  B16..8:  2.7%  0.0%  0.0%  direct: 0.0%  skip:97.3%  L0:65.2% L1:34.6% BI: 0.2%\n",
      "[libx264 @ 0x7fa41670dcc0] 8x8 transform intra:54.2% inter:90.7%\n",
      "[libx264 @ 0x7fa41670dcc0] coded y,uvDC,uvAC intra: 97.2% 99.3% 99.2% inter: 0.5% 0.0% 0.0%\n",
      "[libx264 @ 0x7fa41670dcc0] i16 v,h,dc,p:  2%  3%  3% 92%\n",
      "[libx264 @ 0x7fa41670dcc0] i8 v,h,dc,ddl,ddr,vr,hd,vl,hu: 12% 22% 22%  7%  7%  5% 10%  6% 10%\n",
      "[libx264 @ 0x7fa41670dcc0] i4 v,h,dc,ddl,ddr,vr,hd,vl,hu: 14% 19% 14%  9% 11%  7% 11%  6% 11%\n",
      "[libx264 @ 0x7fa41670dcc0] i8c dc,h,v,p: 46% 24% 13% 16%\n",
      "[libx264 @ 0x7fa41670dcc0] Weighted P-Frames: Y:0.0% UV:0.0%\n",
      "[libx264 @ 0x7fa41670dcc0] ref P L0: 49.7%  0.1% 49.2%  1.0%\n",
      "[libx264 @ 0x7fa41670dcc0] ref B L0: 47.1% 52.7%  0.1%\n",
      "[libx264 @ 0x7fa41670dcc0] ref B L1: 98.7%  1.3%\n",
      "[libx264 @ 0x7fa41670dcc0] kb/s:212.63\n",
      "[aac @ 0x7fa41670ef00] Qavg: 65511.844\n"
     ]
    }
   ],
   "source": [
    "# Audio + Image => Video\n",
    "file_name = \"345-p2.txt\"\n",
    "print(test_tta.merge_video_file(file_name))"
   ]
  },
  {
   "cell_type": "code",
   "execution_count": 40,
   "id": "004bc195",
   "metadata": {},
   "outputs": [
    {
     "name": "stdout",
     "output_type": "stream",
     "text": [
      "0:00:00 Chapter 1\n",
      "0:35:18 Chaptor 2\n",
      "1:08:48 Chaptor 3\n",
      "1:43:18 Chaptor 4\n",
      "2:19:04 Chaptor 5\n",
      "2:41:00 Chaptor 6\n",
      "3:16:17 Chaptor 7\n",
      "3:52:12 Chaptor 8\n",
      "4:31:34 Chaptor 9\n",
      "5:08:11 Chaptor 10\n",
      "5:45:35 Chaptor 11\n",
      "6:17:47 Chaptor 12\n",
      "7:02:48 Chaptor 13\n",
      "7:43:46 Chaptor 14\n",
      "8:23:00 Chaptor 15\n",
      "8:58:42 Chaptor 16\n",
      "9:27:02 Chaptor 17\n",
      "10:01:26 Chaptor 18\n",
      "10:44:51 Chaptor 19\n",
      "11:18:53 Chaptor 20\n",
      "11:55:55 Chaptor 21\n",
      "12:34:13 Chaptor 22\n",
      "13:07:06 Chaptor 23\n",
      "13:42:51 Chaptor 24\n",
      "14:21:37 Chaptor 25\n",
      "15:01:11 Chaptor 26\n",
      "15:46:20 Chaptor 27\n"
     ]
    }
   ],
   "source": [
    "print(test_tta.gen_youtube_chapter_marker(file_name))"
   ]
  },
  {
   "cell_type": "code",
   "execution_count": 51,
   "id": "a692882a",
   "metadata": {},
   "outputs": [
    {
     "name": "stdout",
     "output_type": "stream",
     "text": [
      "0:00:00 Chapter 1\n",
      "0:00:00 Chaptor 15\n",
      "0:02:06 Chaptor 15\n",
      "0:04:20 Chaptor 15\n",
      "0:06:29 Chaptor 15\n",
      "0:08:36 Chaptor 15\n",
      "0:10:37 Chaptor 15\n",
      "0:12:54 Chaptor 15\n",
      "0:14:42 Chaptor 15\n",
      "0:17:03 Chaptor 15\n",
      "0:19:01 Chaptor 15\n",
      "0:21:14 Chaptor 15\n",
      "0:23:35 Chaptor 15\n",
      "0:25:48 Chaptor 15\n",
      "0:27:56 Chaptor 15\n",
      "0:35:41 Chaptor 16\n",
      "1:04:01 Chaptor 17\n",
      "1:38:25 Chaptor 18\n",
      "2:21:50 Chaptor 19\n",
      "2:55:52 Chaptor 20\n",
      "3:32:54 Chaptor 21\n",
      "4:11:12 Chaptor 22\n",
      "4:44:05 Chaptor 23\n",
      "5:19:50 Chaptor 24\n",
      "5:58:36 Chaptor 25\n",
      "6:38:10 Chaptor 26\n",
      "7:23:19 Chaptor 27\n"
     ]
    }
   ],
   "source": [
    "file_name = \"345-p2.txt\"\n",
    "print(test_tta.gen_youtube_chapter_marker(file_name))"
   ]
  },
  {
   "cell_type": "code",
   "execution_count": null,
   "id": "67dcca74",
   "metadata": {},
   "outputs": [],
   "source": []
  }
 ],
 "metadata": {
  "kernelspec": {
   "display_name": "Python tts env",
   "language": "python",
   "name": "tts_env"
  },
  "language_info": {
   "codemirror_mode": {
    "name": "ipython",
    "version": 3
   },
   "file_extension": ".py",
   "mimetype": "text/x-python",
   "name": "python",
   "nbconvert_exporter": "python",
   "pygments_lexer": "ipython3",
   "version": "3.9.12"
  }
 },
 "nbformat": 4,
 "nbformat_minor": 5
}
